<?xml version="1.0" encoding="utf-8"?>
<!-- Generator: Adobe Illustrator 25.4.1, SVG Export Plug-In . SVG Version: 6.00 Build 0)  -->
<svg version="1.1" id="Layer_1" xmlns="http://www.w3.org/2000/svg" xmlns:xlink="http://www.w3.org/1999/xlink" x="0px" y="0px"
	 viewBox="0 0 200 100" style="enable-background:new 0 0 200 100;" xml:space="preserve">
<style type="text/css">
	.st0{fill:#070015;}
	.st1{font-family:'BCAlphapipeL-Regular';}
	.st2{font-size:47.3008px;}
	.st3{letter-spacing:14.06;}
	.st4{fill:#FFFFFF;}
</style>
<text transform="matrix(0.9954 0 0 1 1.8115 93.0195)" class="st0 st1 st2 st3">Acend</text>
<g>
	<g>
		<path class="st0" d="M102.87,40.69c-37.59,0-70.58-4.65-89.26-11.65c-1.1-0.41-2.01,0.76-1.01,1.31
			c16.42,9.06,50.66,15.3,90.27,15.3c39.61,0,73.85-6.24,90.27-15.3c0.99-0.55,0.09-1.72-1.01-1.31
			C173.45,36.04,140.46,40.69,102.87,40.69z"/>
		<g>
			<ellipse class="st0" cx="102.86" cy="40.57" rx="12.72" ry="8.9"/>
			<path class="st4" d="M109.92,38.98H95.81c-0.86,0-1.57-1-1.67-2.29c-0.01-0.18,0.55-0.32,1.24-0.32h7.48h7.48
				c0.7,0,1.26,0.15,1.24,0.32C111.49,37.98,110.78,38.98,109.92,38.98z"/>
		</g>
		<g>
			<path class="st0" d="M102.9,35.66h-0.07c-0.18,0-0.33-0.15-0.33-0.33V22.33c0-0.18,0.15-0.33,0.33-0.33h0.07
				c0.18,0,0.33,0.15,0.33,0.33v12.99C103.23,35.51,103.08,35.66,102.9,35.66z"/>
			<path class="st0" d="M129.03,34.19H76.7c-1.39,0-2.52-0.98-2.52-2.19v3.38c0,0.08,0.08,0.15,0.17,0.15h57.02
				c0.1,0,0.17-0.07,0.17-0.15V32C131.55,33.21,130.42,34.19,129.03,34.19z"/>
		</g>
	</g>
	<g>
		<g>
			<g>
				<g>
					<ellipse class="st0" cx="142.43" cy="45.35" rx="6.54" ry="4.65"/>
				</g>
				<ellipse class="st4" cx="142.43" cy="46.05" rx="3.37" ry="1.86"/>
			</g>
		</g>
		<g>
			<g>
				<g>
					<ellipse class="st0" cx="63.31" cy="45.35" rx="6.54" ry="4.65"/>
				</g>
				<ellipse class="st4" cx="63.31" cy="46.05" rx="3.37" ry="1.86"/>
			</g>
		</g>
	</g>
</g>
</svg>
