<svg id="Layer_1" data-name="Layer 1" xmlns="http://www.w3.org/2000/svg" viewBox="0 0 213 83.1"><defs><style>.cls-1{font-size:47.3px;font-family:BCAlphapipeL-Regular, BC Alphapipe;letter-spacing:0.3em;}.cls-1,.cls-4{fill:#070015;}.cls-2{letter-spacing:0.29em;}.cls-3{letter-spacing:0.3em;}.cls-5{fill:#fff;}</style></defs><text class="cls-1" transform="translate(0 73.02)">A<tspan class="cls-2" x="46.87" y="0">c</tspan><tspan class="cls-3" x="87.46" y="0">end</tspan></text><path class="cls-4" d="M102.5,22.93c-37.92,0-71.2-4.65-90-11.65-1.11-.41-2,.76-1,1.31,16.56,9.06,51.1,15.3,91.06,15.3s74.51-6.24,91.07-15.3c1-.55.09-1.72-1-1.31C173.71,18.28,140.43,22.93,102.5,22.93Z" transform="translate(-1.2 -4.24)"/><ellipse class="cls-4" cx="101.29" cy="18.57" rx="12.83" ry="8.9"/><path class="cls-5" d="M109.61,21.22H95.38c-.86,0-1.58-1-1.68-2.29,0-.18.55-.32,1.25-.32H110c.7,0,1.27.14,1.26.32C111.19,20.22,110.48,21.22,109.61,21.22Z" transform="translate(-1.2 -4.24)"/><rect class="cls-4" x="100.92" width="0.74" height="13.66" rx="0.33"/><path class="cls-4" d="M128.89,16.43H76.1a2.39,2.39,0,0,1-2.54-2.19v3.39a.17.17,0,0,0,.18.15h57.52a.17.17,0,0,0,.17-.15V14.24A2.38,2.38,0,0,1,128.89,16.43Z" transform="translate(-1.2 -4.24)"/><ellipse class="cls-4" cx="141.21" cy="23.35" rx="6.6" ry="4.65"/><ellipse class="cls-5" cx="141.21" cy="24.05" rx="3.4" ry="1.86"/><ellipse class="cls-4" cx="61.39" cy="23.35" rx="6.6" ry="4.65"/><ellipse class="cls-5" cx="61.39" cy="24.05" rx="3.4" ry="1.86"/><text x="-1.2" y="-4.24"/></svg>