<?xml version="1.0" encoding="utf-8"?>
<!-- Generator: Adobe Illustrator 25.4.1, SVG Export Plug-In . SVG Version: 6.00 Build 0)  -->
<svg version="1.1" id="Layer_1" xmlns="http://www.w3.org/2000/svg" xmlns:xlink="http://www.w3.org/1999/xlink" x="0px" y="0px"
	 viewBox="0 0 200 100" style="enable-background:new 0 0 200 100;" xml:space="preserve">
<style type="text/css">
	.st0{fill:#231F20;}
	.st1{font-family:'BCAlphapipeL-Regular';}
	.st2{font-size:47.3008px;}
	.st3{letter-spacing:14.06;}
	.st4{fill:#FFFFFF;}
	.st5{fill:#231F20;stroke:#231F20;stroke-miterlimit:10;}
</style>
<text transform="matrix(0.9954 0 0 1 1.8115 93.0195)" class="st0 st1 st2 st3">Acend</text>
<g>
	<path class="st0" d="M100.46,28.47c-37.05,0-69.57-5.57-87.97-13.95c-1.08-0.49-1.98,0.91-1,1.57
		c16.18,10.85,49.93,18.32,88.97,18.32c39.04,0,72.79-7.47,88.97-18.32c0.98-0.66,0.08-2.06-1-1.57
		C170.02,22.9,137.51,28.47,100.46,28.47z"/>
	<g>
		<ellipse class="st0" cx="100.45" cy="28.33" rx="12.54" ry="10.65"/>
		<path class="st4" d="M107.4,26.42H93.5c-0.85,0-1.55-1.2-1.65-2.74c-0.01-0.21,0.54-0.39,1.23-0.39h7.37h7.37
			c0.69,0,1.24,0.17,1.23,0.39C108.95,25.23,108.25,26.42,107.4,26.42z"/>
	</g>
	<g>
		<ellipse class="st0" cx="63.56" cy="35.49" rx="4.38" ry="3.49"/>
		<path class="st0" d="M137.53,32c-2.42,0-4.38,1.56-4.38,3.49c0,1.93,1.96,3.49,4.38,3.49s4.38-1.56,4.38-3.49
			C141.91,33.56,139.95,32,137.53,32z M137.53,38.21c-1.88,0-3.41-1.22-3.41-2.71c0-1.5,1.52-2.71,3.41-2.71s3.41,1.22,3.41,2.71
			C140.93,36.99,139.41,38.21,137.53,38.21z"/>
	</g>
	<g>
		<path class="st5" d="M100.48,22.45h-0.06c-0.18,0-0.33-0.15-0.33-0.33V6.43c0-0.18,0.15-0.33,0.33-0.33h0.06
			c0.18,0,0.33,0.15,0.33,0.33v15.69C100.81,22.3,100.66,22.45,100.48,22.45z"/>
		<path class="st5" d="M126.24,20.69H74.66c-1.37,0-2.48-1.17-2.48-2.62v4.05c0,0.1,0.08,0.18,0.17,0.18h56.2
			c0.1,0,0.17-0.08,0.17-0.18v-4.05C128.72,19.52,127.61,20.69,126.24,20.69z"/>
	</g>
	<ellipse class="st4" cx="63.56" cy="35.49" rx="3.41" ry="2.71"/>
</g>
</svg>
